<svg version="1" xmlns="http://www.w3.org/2000/svg" width="682.667" height="682.667" viewBox="0 0 512.000000 512.000000"><path d="M0 256v256h248v-20h-6.1l.3-14.5c.2-9.1-.1-14.5-.7-14.6-.5-.1-2-.1-3.2-.2H236V424h-7.1l.2-17.3c.1-9.4.5-18.2 1-19.5.6-1.5.5-2.2-.4-2.3-.6-.1-2.3-.2-3.7-.2-2.5-.2-2.5-.3-2.6-9.7l-.2-9.5-3.1-.3-3.1-.3V336h-5.9l-.3-14.7-.3-14.7-3-.1h-3l-.3-12c-.3-14.1.1-16.5 2.8-16.5 1.1 0 2 .6 2 1.2 0 .9.4.8 1-.2.5-.8 1-5.7 1-10.8V259h3c1.7 0 3-.5 3.1-1.3 0-.6.1-5 .2-9.7l.2-8.5 3-.3c2.9-.3 3-.5 2.8-4.7l-.2-4.5h11.5l.2 3.7c.2 2.1-.2 4-1 4.4-1.4.9.6 1.3 5 .9 2.1-.1 2.2.1 2.2 9.9V259h3.3c3.3 0 3.4.1 3.5 4.2.2 4.6.7 5.4 3.7 6 1.6.2 2 1.2 2.1 4.3.1 2.2.2 4.3.3 4.7.1.4 1.3.6 2.9.5l2.7-.2.3 9.7.3 9.7 3.1.3c2.8.3 3.1.6 3.2 4.1.1 2.6-.3 3.7-1.4 3.8-2.5.1 2.2 1.8 5.2 1.8 2.5.1 2.7.4 2.5 4.6-.2 4.2-.1 4.4 2.8 4.7 2.9.3 3 .5 3.3 5.4.3 4.9.3 5 3.2 4.6l2.9-.4.3 9.8.3 9.9 3.3.3c3 .3 3.2.6 3.2 4.3 0 2.4-.5 3.9-1.2 3.9-.9 0-.8.3.2.9.8.6 1.8.7 2.2.5.5-.3 1.7-.2 2.8.1 1.6.5 1.9 1.4 1.8 4.4-.2 4.8.6 5.9 3.6 5.4 2.3-.5 2.5-.2 2.8 4.3l.3 4.9 6.3.3 6.3.3-.3 4.2c-.3 3.7-.6 4.2-2.8 4.2-3 0-4.1 1.4-3.5 4.6.8 4.2-.2 5.6-4.3 5.7-9.5.1-8.9-.3-8.6 4.6.2 4.3.1 4.5-2.9 4.8-3.1.3-3.1.4-2.8 5l.3 4.8H285v4.8c0 2.6.5 5.3 1 5.8.6.6 3.3.8 6.6.4l5.5-.6-.2 4.1c-.3 5.2.4 6.4 3.6 5.7 2.4-.4 2.5-.2 2.5 4.7v5.1h7l-.2 28.7-.3 28.8h-3c-2.9.1-3 .2-3.3 5.3l-.3 5.2H349V481.3l-3 .5-3 .4.2-18.8c.3-18.7.3-18.9 2.6-19.2 1.9-.3 2.2.1 2.3 3 .1 1.8.2 3.7.4 4.3.1.5.3 1.5.3 2.2.1.6 1.1.9 2.3.6 1.2-.4 2.5 0 2.9.7 1 1.7 2.3-4.4 1.8-8.6-.3-2.5-.8-2.9-3.6-3.2l-3.3-.3.2-14.2.1-14.2-3.1-.3-3.2-.3.3-9.2c.3-8.4.5-9.2 2.3-9.3 6.2-.5 7-.6 5.3-1.1-1.3-.3-1.8-1.5-1.8-4.4V386h17.8l.1 9 .2 9h-6l-.3 20-.3 20h13.6l-.3 14.5c-.2 8 0 14.6.5 14.6.4.1 1.7.2 3 .3 2.2.1 2.2.3 2.3 14.6l.1 14.5 3.2.3c3 .3 3.1.5 3.1 4.8v4.4h126V0h-25v15.5h3.3c3.2 0 3.2.1 3.2 4.8 0 4.6 0 4.7 3.3 4.7h3.2v8.9c0 10-.1 10.1-7.6 10.1H488V24h-13.2l.3-4.8.3-4.7-9.7-.3-9.7-.3.3-6.9.4-7h-3.9c-3.1 0-3.8.4-3.8 1.9 0 1.1-.4 2.2-.9 2.5-1.6 1-4.1-.5-4.1-2.5 0-1.7-.9-1.9-10-1.9h-10v15h2.9c2.9 0 3 .2 3.3 5.2l.3 5.3 3.4-.3 3.4-.4-.5 4.6c-.4 3-.2 4.6.6 4.7.6 0 3.4.1 6.1.2l5 .2.5 10 .5 10 3.3-.3c1.8-.2 3.2 0 3.1.5-.1.4-.1 2.7 0 5 .1 4.1.2 4.3 3.2 4.3 2.9 0 3 .1 2.7 4.2l-.3 4.3h-30V63H424v49l8 .1c4.4.1 8.6.2 9.3.3.7.1 1.4 2.1 1.7 5.1.3 3.5.9 4.9 1.9 4.7 3.9-.8 4.6.5 4.3 8.4-.5 10.6 0 12.2 3.8 11.6 3-.4 3-.4 3 4.2 0 4.6 0 4.6-3.5 4.6H449v19h-6v20h-18.1l.1-23.8c.1-13 .1-24.2.1-24.7-.1-.6-3.4-.9-8.7-.7-9.7.4-10.4 0-10.4-6.1 0-3.4-.2-3.7-3-3.7-2.9 0-3-.2-3-4.3 0-2.3-.5-4.9-1-5.7-.6-1-1-1.1-1-.3 0 1-2.4 1.3-8.5 1.3H381v-10h-14v4.4c0 4.2-.2 4.4-3.3 5-3.1.6-3.2.7-2.9 5 .4 4.4.3 4.5-3 4.8-3.2.3-3.3.4-3.3 4.8 0 4.4-.1 4.5-3.3 4.8l-3.3.3.3 5.2.3 5.2h3.5c3.5 0 3.5 0 3.8-4.8l.3-4.7H368v-5c0-4.9.1-5.1 2.8-4.7 2.8.4 2.8.5 3.1 8.7.1 2.4.4 3.1 1 2.2.5-.8 1.7-1.2 2.7-1 1.5.2 1.9 1.2 1.9 4.3 0 2.2.5 4.3 1 4.7.6.4 3.6.8 6.9.8h5.8l-.4 4.5c-.3 4.7.2 5.3 4 5 2.1-.2 2.3.2 2.1 3.9-.3 6.1-.2 6.3 3.1 5.8l3.1-.4-.3 9.3-.3 9.4-5.8.3-5.8.3.5-3.7c1.2-7.2 2.2-6.9-22.6-6.7l-22.3.2-.1 4.8c-.1 2.6.2 5.5.7 6.3.5 1 .8 1.1.9.2 0-1.8 3.7-1.5 4.4.4.3.9.6 3.1.6 5 0 3.2.2 3.4 3.5 3.4 3.5 0 3.5 0 3.5-4.4v-4.3l4.6-.7c11.2-1.5 13.4-.6 13.4 5.6v3.8h13.1l-.2 14.6c-.1 11.2.2 14.9 1.2 15.5.7.4 1.8.4 2.4 0 1.3-1 6.6-.8 8.4.3 1 .6 1.2.5.7-.2-.4-.7-.3-1.2.1-1.2.5 0 .7-4.2.5-9.4l-.4-9.3 2.9.1c2.9.1 2.8-.1 3.2 7.4.1 2.6.4 2.8 3.6 2.4 3.5-.4 3.5-.5 3.5-5.3 0-4.6.2-4.9 2.5-4.9h2.5v29.1l-3.1-.3-3.2-.3.2 8.5c.1 9.3-.6 11.6-3.7 10.8-2.7-.7-2.9.2-2.8 9.4.1 7.2 0 7.8-1.9 7.9-1.6.1-1.6.2.5.8 2.2.6 2.3.8.7 1.4-3.8 1.4-4.5.8-4.4-3.6 0-2.3.6-4.5 1.1-4.9.6-.4-.8-.8-3.1-.8h-4.2l-.3-9.8-.3-9.7h-3.4c-3.4 0-3.4.1-3.5 4.5l-.1 4.5-6.5.5-6.4.5.3 4.8.3 4.7H367v19h-24.2l.4-4.5.3-4.5h-5.6c-6.6 0-7.6-.9-7.6-6.5 0-3.9 0-4-3.2-3.7l-3.2.4.1-8.9c.1-4.8.1-9.4.1-10.1-.1-.7-1.4-1.2-3.2-1.2-3.1 0-3.1-.1-2.7-4.5.2-3.1-.1-4.5-.9-4.6-6.8-.5-6.6-.7-6.6 5.1 0 5.3.1 5.4 2.9 5.5 2.9 0 2.9 0 3.2 6.9.5 9.6-.2 11.9-3.3 11.3-2.3-.4-2.5-.1-2.5 3.7 0 5.3-1.1 7-3.9 6.1-1.7-.5-2.1-1.4-2.1-5.4 0-4.7 0-4.7-3-4.3-3 .4-3 .4-3-4.7V258h-5.9c-4.4 0-6-.4-6.5-1.6-.8-2-.8-22.8 0-24.8.3-.9 1.7-1.6 3-1.6 2.5 0 2.8-.4 3.8-5.5.5-2.3.4-2.7-.4-1.5-.9 1.3-1.1 1.2-.8-.5.3-1.8 1.2-2 9-2.3 8.4-.3 8.8-.2 9.3 2 .3 1.3.4 3.4.3 4.8-.3 2.2.1 2.5 2.5 2.3 1.5-.1 2.7.3 2.7 1s.4.6 1-.3c.5-.8 1-3.4 1-5.8 0-4 .1-4.2 3-4.2 1.7 0 3-.3 3.1-.8.4-2.8.5-7.9.1-9-.2-.6-1.7-1.2-3.3-1.2H318v-9.5c0-6.9-.3-9.5-1.2-9.6-.7-.1-2-.2-2.8-.3-.8 0-1.5-.6-1.5-1.3 0-.6-.3-1.5-.7-1.9-.4-.3-.6.3-.3 1.5.3 1.8-.1 2.1-3 2.1h-3.4v-39.5l-3 .3c-3.1.3-3.1.3-3.1-4.3 0-4.7 0-4.7 3-4.3 3.3.5 3.7-.2 3.1-6.9-.3-4-.5-4.3-3.3-4.3-2.9 0-3-.1-2.6-4.5.3-4.4-1-6.4-3.3-4.9-.6.3-1.6 0-2.4-.6-1.3-1.1-1.5-.3-1.5 5.2 0 6.3 0 6.4 2.8 6.3 2.5 0 2.7.3 3 4.2.3 4.2.2 4.3-2.7 4.3h-3l-.3 9.7c-.3 9.7-.3 9.8-2.8 9.8-2.3 0-2.5-.4-2.5-4.8 0-4.7 0-4.7-3.3-4.7H280l.2-19.3.3-19.2 2.8-.3 2.7-.3v-9c0-4.9.1-9.2.3-9.7.1-.4-1.5-.8-3.5-1-3.5-.3-3.8-.1-3.9 2.5-.3 6.6-.4 6.8-3.1 7.1l-2.8.3V131h-25v-4.9c0-4.7-.2-5-2.7-5.3-2.5-.3-2.8-.7-3.1-4.6-.3-3.9-.5-4.2-3.3-4.2h-3l.3-9.3.3-9.2 2.8-.3 2.7-.3.1-22.7c.1-12.5.2-23.4.3-24.2 0-.8 1.3-1.6 2.9-1.8l2.7-.3V64l2.8-.1c2.8 0 7.7-1.7 5.4-1.8-1-.1-1.2-2.3-1-8.9.3-8.3.4-8.7 2.7-9 1.3-.2 3.9-.1 5.7.3 3 .5 3.3.9 3.1 3.8-.2 1.8-.6 3.7-.9 4.2-.3.6 0 1.6.8 2.3.9.8 1.4.9 1.4.2 0-.6 1-1 2.3-.8 1.9.3 2.2.9 2.2 4.3v4l-6.2.3-6.2.3-.3 4.7c-.3 4.3-.5 4.7-2.8 4.7s-2.6.5-3.1 5c-.3 2.7-.2 5.2.2 5.5.4.3 2.9.3 5.6.1 2.6-.2 4.1-.6 3.3-1-2-.8-2.7-8.1-.8-8.2.7 0 4.1 0 7.5.1 9.4.2 10.3-.3 10.3-5.6 0-4.2.1-4.4 3-4.4h3v-9.4c0-8.6.2-9.5 2-10.1 1.1-.3 2.3-.4 2.8-.1.4.2 1.4.1 2.2-.5 1.1-.6 1.1-.9.2-.9-.8 0-1.1-1.1-.8-3.5.6-4.5 1.4-5.7 3.4-5.1 2.6.8 3.7-.6 3.7-4.9 0-2.8.4-4 1.5-4.1.8-.1 2-.2 2.7-.3.7-.1 1.3-2.1 1.5-4.9.3-4.4.5-4.7 3.1-4.7 2.9.1 3 0 3.1-6 .1-4 .1-4 4.6-4.6 2.5-.3 3.9-.7 3.3-.7-.7-.1-1.3-1.1-1.3-2.2 0-1.6-.7-2-3.5-2-2.1 0-3.5.5-3.5 1.2s-.5 2-1 2.8c-.9 1.3-1.1 1.3-2 0-.7-1-1.2-1.2-1.7-.4-.5.6-2.1 1.1-3.8 1-2.3-.1-3.1-.6-3.3-2.4l-.3-2.2H115v13.9l-3.1.3-3.1.3.1 19.4.2 19.3-3-.4c-2.8-.4-3.1-.1-3.6 2.6-.4 1.7-.5 6.5-.3 10.6l.3 7.5 4.9.3c8.3.5 9.2 0 8.8-5.3l-.4-4.5h24.1l.3 4.7c.3 4.6.4 4.8 3.6 5.1l3.2.3.1 11.2c.1 6.2.3 10.4.6 9.4.3-1.2 1.2-1.7 2.6-1.5 2.1.3 2.2.7 2.2 14.6V122h6.5v9.5c0 7.1-.3 9.5-1.2 9.4-4.9-.6-4.7-1.6-5 24.3l-.3 24.3-5.8.3-5.9.3.4-4.8.3-4.8-6.7-.3-6.8-.3V200h-7v48h-5.9l-.3 14.7-.3 14.8-3 .3c-2.9.3-3 .4-2.6 4.8.3 4.5.3 4.5-2.5 4.2-2.7-.3-2.9-.6-2.9-4.3v-4l-6-.5-6-.5-.5-5c-.5-4.9-.6-5-3.7-5s-3.3.2-3.3 3.7c0 3.2-.3 3.8-2.2 3.9-2.2.1-2.2.1.2.8 1.7.5 2.1.9 1.2 1.5-.7.4-2 .5-3 .2-2.2-.7-3-7.5-1-8.7.8-.6-.3-.9-2.9-.9H72v-4.4c0-4.3.1-4.5 3.3-4.8 3.2-.3 3.2-.3 2.9-5.1-.2-2.6 0-4.7.5-4.6.4.1 2.1.1 3.6 0l2.9-.1-.4-9.5-.3-9.4 3-.3 3-.3.3-14.8.3-14.7H94c2.8 0 3-.3 3.2-4 0-2.2.1-4.6.2-5.3.1-.8-1-1.1-3.1-.9l-3.2.3-.3-5.3c-.2-3.8-.7-5.2-1.7-5-3.9.8-4.6-.5-4.6-9 0-4.6.5-8.6 1-9 1.1-.8.8-.9-4-1.2l-3-.1-.1-9.5v-9.5l-3.2-.3c-3.1-.3-3.2-.4-3.2-5.3 0-4.8-.1-4.9-3-4.9-1.7 0-3-.5-3.1-1.3 0-.6-.1-2.8-.2-4.7-.2-3.1-.5-3.5-2.6-3.2-3.4.5-4.2-1.3-4-10.4.2-8-.4-10.9-2.1-9.9-.4.3-1.6.2-2.5-.1-1.4-.6-1.6-2-1.3-9.3.3-8.4.4-8.6 2.8-8.5 3.2.2 3.9-1 3.3-5.7-.6-4-.5-4.1 4.2-4.3 1.9-.1 2-.8 2-9.9V54h3.3c3.2 0 3.2 0 3.2-5 0-4.9.1-5 3-5h3V25h7.2l-.4-9.5c-.2-7.9 0-9.5 1.2-9.6.8-.1 2.2-.2 3-.3.8 0 1.6-1.3 1.8-2.9l.3-2.7H0v256zM443 9.5V14h-11.8v-3.8c0-2 .2-4 .5-4.5.2-.4 2.9-.7 5.9-.7h5.4v4.5zm61.4 35.1c1.1.4 1.6 1.9 1.6 4.5 0 3.5-.3 3.9-2.5 3.9-2.3 0-2.5-.4-2.5-4.5 0-4.5.5-5 3.4-3.9zm-42.9 49.5c.4.6.4 2.6.1 4.5-.7 3.4-.7 3.4-6.1 3.4H450v-3.8c0-2.1.3-4.2.7-4.5 1.1-1.1 10.1-.8 10.8.4zm6.3 18.1l-.3 9.3-2.7-.2c-3-.2-3.1.1-2.8 5.9.1 3.5 0 3.8-2.7 3.8h-2.8l-.2-8.7c-.3-9.2.2-10.3 4.5-10.3 1.9 0 2.2-.5 2.2-4.5 0-4.2.2-4.5 2.5-4.5h2.6l-.3 9.2zm13 4.6c-.2 3.7-.7 4.8-2.2 5-2.3.5-3.6-1.4-3.6-5.4 0-3.7.1-3.9 3.5-4 2.5-.2 2.6 0 2.3 4.4zM222 156.7c0 4-.2 4.4-2.2 4.1-1.8-.2-2.4-1.1-2.6-3.6-.5-4.7.3-6.1 2.7-5.5 1.7.4 2.1 1.3 2.1 5zm-189.2 9.1c.3 3.9.1 4.2-2.2 4.2-2.4 0-2.6-.4-2.6-3.9 0-3.7 1.2-5.3 3.5-4.7.6.1 1.1 2.1 1.3 4.4zm221.1 9.9l-.2 14.3H248v17c0 12.9-.3 17-1.2 17.1-1 0-1 .2 0 .6.6.2 1.2 1.3 1.2 2.4 0 1.4-.7 1.9-3 1.9h-3v-29h-3c-2.9 0-3-.2-3-4.4 0-4.5 1.5-6.1 4.5-5 1.3.5 1.5-1.3 1.6-12.2.1-7.1.1-13.3 0-13.8-.5-2.6 1-3.4 6.4-3.4l5.6.1-.2 14.4zM14 185.5c0 4.1-.2 4.5-2.5 4.5s-2.5-.4-2.5-4.5.2-4.5 2.5-4.5 2.5.4 2.5 4.5zm404 5v9.5h-12v-4.6c0-3.7.3-4.5 1.5-4 .8.3 1.5 0 1.5-.6 0-.7.5-.6 1.5.2 1.3 1.1 1.5.8 1.6-1.6.1-1.6 0-4.1-.1-5.7-.1-2.4.2-2.7 2.9-2.7h3.1v9.5zM32.8 234.2L33 258h-2.4c-2.5 0-2.5-.1-2.8-9.8-.2-7.7-.6-9.7-1.8-9.8-.8-.1-2.2-.2-3.1-.3-1.4-.1-1.7-1.6-1.8-9.1l-.2-9H28v-5.1c0-4.7.2-5 2.3-4.7l2.2.3.3 23.7zm12.8 27.3c.1 1.1.2 3.2.3 4.7.1 2.3.6 2.8 2.5 2.8 4.5 0 5.1-.7 4.8-5.5-.4-4.2-.3-4.5 2.1-4.5s2.6.4 2.9 4.7c.3 4.6.4 4.8 3.6 5.1 3.3.3 3.4.4 3 4.8-.3 3.6 0 4.4 1.4 4.5 1 .1 2.4.2 3.1.3.8.1 1.2 2.8 1.3 9.6l.2 9.5 3 .3c2.9.3 3.1.6 3.4 5l.3 4.7 9.3.3 9.2.3v8.9l-7.7.1c-4.3.1-7 .3-6 .6 1.2.3 1.7 1.5 1.7 4.4 0 3.5-.3 3.9-2.4 3.9-5.1 0-5.1 0-4.8 15.5l.3 14.5h-2.8c-2.2 0-2.5-.2-1.3-1 .9-.6 1-1 .3-1-2 0-3 3.2-2.6 8 .4 4.2.6 4.5 3.4 4.4 3.8-.1 4.2-.6 4.3-5.6.1-3.9.3-4.3 2.6-4.3 2.5 0 2.5.1 2.5 9v9l-3.5.3-3.5.3.5 15.2.5 15.1 3 .1h3l.3 12.8c.1 7.3-.2 13.5-.7 14.5-.8 1.4-1 1.4-1.1.2 0-1.3-.1-1.3-1 0-.8 1.2-1.2 1.3-1.9.2-1.1-1.8-2.1.7-2.1 5.7 0 3.3-.3 3.7-2.7 3.9-3.4.3-4.2 1.6-3.6 6.2l.5 3.8-6.1.1-6.1.1v-10.8c0-6.2-.4-10.1-.9-9.4-.4.8-1.9 1.2-3.2 1-2.2-.3-2.4.1-2.7 4.5-.3 4.2-.5 4.7-2.8 4.7-2.4 0-2.4-.1-2.4-9.5V424h-7v-20h-6v-19h-3c-2.9 0-3-.1-3-5v-5h-6.8l.1-4.8c.2-4.6.2-4.7-3.1-5l-3.3-.3.3-9.5c.3-10 .2-10.2-5-9.5-1 .2-1.3-2-1.1-9.6l.2-9.8-3.1-.3c-3.4-.3-4.9-3.4-2.6-5.3.8-.6 1.4-1.7 1.3-2.3 0-.7-.2-.6-.6.1-.2.7-.9 1.3-1.4 1.3-.4 0-.6-.7-.2-1.6.4-1.2 1.4-1.4 3.4-1l2.9.5V298h12.1l-.3 4.7-.3 4.8H24c3.5 0 3.5-.1 3.8-4.7.3-4.4.5-4.7 3.4-5l3-.3.2-9.5.1-9.5 2.8-.3c2.9-.4 3.1-1.1 2.7-14-.2-5.3-.1-5.3 2.7-5 2 .2 2.8.9 2.9 2.3zm352 7.5c1.6 0 1.9 5.6.4 8-.9 1.3-1 1.3-1 0s-.1-1.3-1 0c-.7 1.1-1.2 1.2-1.7.4-.6-.9-1.2-.8-2.1.2-.7.8-.8 1.4-.2 1.4.5 0 1 1.8 1 4v4h-12v-4.5c0-4.3.1-4.5 2.9-4.5s3-.3 3.3-4.2c.3-3.9.6-4.4 3.3-4.9 1.7-.4 3.6-.5 4.3-.3.8.2 2 .4 2.8.4zM89.8 292.2c-.2 3.6-.7 4.4-2.5 4.6-2.1.3-2.3-.1-2.3-4.2 0-4.3.2-4.6 2.6-4.6 2.3 0 2.5.3 2.2 4.2zm290.2 4.7c0 9.1-.6 10.7-3.8 9.7-1.5-.5-1.7-1.7-1.4-9.6.3-8.8.4-9 2.8-9s2.4.1 2.4 8.9zm18.8 5.6c-.1 4.1-.3 4.5-2.7 4.5-2.4 0-2.6-.4-2.8-4.5-.1-4.3 0-4.5 2.8-4.5s2.9.2 2.7 4.5zm-6 9.9c-.3 3.9-.5 4.1-3.8 4.4-3.5.3-3.5.3-3.2 4.7.4 4.3.3 4.5-2.2 4.5-2.6 0-2.6 0-2.6-8.3 0-4.6.4-8.7.9-9.3.6-.5 3.3-.7 6.1-.5l5.1.3-.3 4.2zm37.9 139.1c3.5 2.5 3.8 6.3.7 9.6l-2.6 2.8 2.1 6.2c1.1 3.4 1.9 6.5 1.6 6.7-.5.6-5.8-10.6-5.8-12.4 0-.6-.9-.9-1.9-.6-1 .2-1.8 0-1.8-.5s1.2-1 2.6-1.1c3.8-.3 5.4-2 5.4-5.6 0-4.5-1.6-5.6-7.7-5.6H418v4c0 2.2 0 4.3.1 4.6 0 .4-.5 1.1-1.3 1.5-.9.6-.6.9 1.2 1 1.4.1 2.8.1 3.3 0 .4 0 .7.3.7.9 0 .5-.9 1-2 1-1.8 0-2 .7-2 6 0 4.7-.3 6-1.5 6-1.3 0-1.5-2.1-1.5-13v-13h6.8c4.3 0 7.5.5 8.9 1.5zm48.4.3c3.1 2.6 3 7.5-.1 10l-2.4 1.9 2.3 6.2c1.2 3.5 2 6.5 1.7 6.8-.6.7-5.9-10.4-5.9-12.3 0-.6-.9-.9-1.9-.6-1 .2-1.8 0-1.8-.5s1.2-1 2.6-1.1c3.8-.3 5.4-2 5.4-5.6 0-4.5-1.6-5.6-7.7-5.6H466v4c0 2.2 0 4.3.1 4.6 0 .4-.5 1.1-1.3 1.5-.9.6-.6.9 1.2 1 1.4.1 2.8.1 3.3 0 .4 0 .7.3.7.9 0 .5-.9 1-2 1-1.8 0-2 .7-2 6 0 4.7-.3 6-1.5 6-1.3 0-1.5-2.1-1.5-13v-13h6.9c5.2 0 7.4.5 9.2 1.8zm-27.6 6.4c2.5 1.1 5.5 5.4 5.5 7.8 0 .6-2.6.9-6.7.8l-6.8-.2 5.8-.3c6.1-.4 6.8-1.3 4.1-5.1-1.1-1.5-2.5-2.2-5-2.2-4.8 0-7.4 2.9-7 7.8.7 8 4.6 10.5 11.4 7.1l3.7-1.9-2.8 2.5c-3.1 2.7-5.7 3.1-9 1.3-3.6-1.9-4.9-3.7-5.4-7.8-.5-3.5-.2-4.3 3-7.5 3.8-3.8 5.2-4.1 9.2-2.3zm48.4.3c3 1.5 4.1 3.3 4.1 6.6 0 1.7-.7 1.9-6.7 1.7l-6.8-.2 6.3-.3c6-.4 6.3-.5 5.6-2.6-.9-3.1-2.5-4.5-5.4-4.8-3.6-.3-5.9.9-7.5 4.1-1.1 2.2-1.2 3-.2 3.3.9.4.8.8-.3 1.6s-1.2 1.1-.2 1.1c.7 0 1.1.4.8.9-.3.5.2 1.9 1.2 3.1 1.9 2.3 7.9 3.1 10.5 1.3.7-.4.4 0-.6.9-4.3 4-12 .4-13.3-6.1-1-4.6.3-8 3.9-10.1 3.8-2.4 4.9-2.4 8.6-.5z"/><path d="M462.2 2.7c.3 2.8.9 3 8.1 2.3 1.7-.2 1.8-.3.5-.7-1-.2-1.8-1.3-1.8-2.4 0-1.5-.7-1.9-3.6-1.9-3.3 0-3.5.2-3.2 2.7zM475 1.9c0 1.1-.6 2.2-1.2 2.4-.7.3-.1.6 1.5.6 1.8.1 2.7.6 2.8 1.8 0 1.7.1 1.7.8 0 .4-1 1.1-1.8 1.6-1.7.6 0 1.1-1.1 1.3-2.5.3-2.3 0-2.5-3.2-2.5-2.9 0-3.6.4-3.6 1.9zM362.5 4.7c-1.7.3-2 1-1.7 5.3.4 5 .4 5 3.8 5h3.5l-.3-5.2c-.3-5.5-.9-6-5.3-5.1z"/><path d="M374 14v10h-12.9l-.3 4.7-.3 4.8-4.9.3c-5.6.4-6.6-.5-6.6-6.1V24h-13.1l.3 5.2c.3 4.9.5 5.3 3 5.6 2.4.3 2.7.8 3 4.9l.3 4.5 12.2-.1 12.2-.2.3 4.8.3 4.8 6 .5 6 .5.2 3.5c.1 1.9.2 4.1.2 4.7.1.7 1.4 1.3 3 1.3 2.8 0 3 .2 3.3 4.7l.3 4.8 4.5.3c7.9.5 9-.2 9-5.3v-4.4l9.3-.3 9.2-.3.3-5.3.3-5.2h-6.5c-6.1 0-6.5-.1-6.4-2.3 0-1.2 0-5.7-.1-10L406 33l-3 .5-3 .5V24h-7.2l.3-4.8.3-4.7-6.3-.3-6.3-.3.4-4.5c.2-2.5-.1-4.4-.7-4.5-.5 0-2.2-.3-3.7-.5l-2.8-.5V14zm5.8 15.2c-.2 3.6-.7 4.4-2.5 4.6-2.1.3-2.3-.1-2.3-4.2 0-4.3.2-4.6 2.6-4.6 2.3 0 2.5.3 2.2 4.2zm6.2 10.4c0 3.8-.3 4.5-1.6 4-.9-.3-2-.6-2.5-.6s-.9-1.8-.9-4c0-3.6.3-4 2.5-4 2.3 0 2.5.4 2.5 4.6zm6.5 8.9c0 3.1-.4 4.1-1.9 4.3-2.2.5-3.6-1.4-3.6-4.9 0-3.2.8-4.1 3.5-3.7 1.6.2 2 1 2 4.3zM260.6 101.8c-1.3 1.2-.6 10 .8 10.5 3.4 1.3 5.4-.4 5.8-5 .2-2.4.1-4.8-.2-5.1-.6-.9-5.7-1.2-6.4-.4zM430.3 122.6c-.2.7-.3 3.1-.1 5.5.3 4.2.4 4.3 3.8 4.3 3.1 0 3.5-.4 4.1-3.2.4-1.9.2-3.3-.5-3.6-.6-.2-.3-.5.7-.5 1.7-.1 1.7-.2.2-1.8-1.9-1.9-7.5-2.4-8.2-.7zM425.5 128.1c-.4.6-.5 1.2-.2 1.5.2.3.7-.2 1-1.1.7-1.7.1-2-.8-.4zM109.3 219.3c-.6 1-.7 4.5-.4 8.9.1 1.4 1 1.8 3.5 1.8 1.9 0 3.7-.3 3.9-.8.2-.4.2-2.8-.1-5.4-.4-4.2-.6-4.6-3.3-5-1.7-.3-3.3 0-3.6.5zM370 238.9c-2.2.6-2.5 1.2-2.5 5.1 0 4.5 0 4.5 3.8 4.8l3.8.3-.3-5.2c-.3-5.6-.8-6.1-4.8-5zM110.8 273.7c.7.3 1.6.2 1.9-.1.4-.3-.2-.6-1.3-.5-1.1 0-1.4.3-.6.6zM296.8 437.7c.7.3 1.6.2 1.9-.1.4-.3-.2-.6-1.3-.5-1.1 0-1.4.3-.6.6z"/></svg>