<svg version="1" xmlns="http://www.w3.org/2000/svg" width="682.667" height="682.667" viewBox="0 0 512.000000 512.000000"><path d="M30.5 10.9c-4.6 1.1-7 2.7-10.8 7.1C12.4 26.5 13 7 13 256c0 205.2.1 224.2 1.7 228.9 1.8 5.8 7 12.3 11.7 14.9 2.9 1.6 17.1 1.7 229.6 1.7s226.7-.1 229.6-1.7c4.7-2.6 9.9-9.1 11.7-14.9 1.6-4.7 1.7-23.7 1.7-228.9 0-205.2-.1-224.2-1.7-228.9-1.8-5.8-7-12.3-11.7-14.9-2.9-1.6-17.1-1.7-227.6-1.9-123.5 0-225.8.2-227.5.6zM385 256v121H131V135h254v121z"/><path d="M160 256v32h8v-28h12l7 14 7 14h8.9l-7-13.4c-3.8-7.3-6.9-13.8-6.9-14.4 0-.6.9-1.3 2-1.7 2.8-.9 7.3-5.9 8.7-9.7 3.7-10.5-1.3-20.9-11.5-23.8-2-.5-9.2-1-15.9-1H160v32zm28.9-21.4c5.6 4.6 5 13.8-1 16.9-1.8 1-5.8 1.5-11.4 1.5H168v-21h8.9c8.1 0 9.2.2 12 2.6zM262 256v32h8v-28h12l7 14 7 14h8.9l-7-13.4c-3.8-7.3-6.9-13.8-6.9-14.4 0-.6.9-1.3 2-1.7 2.8-.9 7.3-5.9 8.7-9.7 3.7-10.5-1.3-20.9-11.5-23.8-2-.5-9.2-1-15.9-1H262v32zm28.9-21.4c5.6 4.6 5 13.8-1 16.9-1.8 1-5.8 1.5-11.4 1.5H270v-21h8.9c8.1 0 9.2.2 12 2.6zM224 241.6c-8.5 3.7-13 11.8-13 23.4.1 11.4 3.9 18.2 12.4 22.1 7.8 3.5 21.2 1.7 25.5-3.5 1.3-1.5 1.2-2-.6-3.7-2-2-2-2-5.4 0-5.5 3.2-10 3.6-15.2 1.3-4.9-2.2-8.7-7.7-8.7-12.7V266h33.3l-.7-5.6c-.7-6.2-2.8-11.8-5.4-14.8-4.5-5.1-15.3-7-22.2-4zm12.5 5.8c3.8 1.6 6 4.6 7 9.3l.7 3.3h-25.4l.6-2.8c1-4 3.8-7.5 7.7-9.4 4.1-2.2 5-2.2 9.4-.4zM326 241.6c-8.5 3.7-13 11.8-13 23.4.1 11.4 3.9 18.2 12.4 22.1 7.8 3.5 21.2 1.7 25.5-3.5 1.3-1.5 1.2-2-.6-3.7-2-2-2-2-5.4 0-5.5 3.2-10 3.6-15.2 1.3-4.9-2.2-8.7-7.7-8.7-12.7V266h33.3l-.7-5.6c-.7-6.2-2.8-11.8-5.4-14.8-4.5-5.1-15.3-7-22.2-4zm12.5 5.8c3.8 1.6 6 4.6 7 9.3l.7 3.3h-25.4l.6-2.8c1-4 3.8-7.5 7.7-9.4 4.1-2.2 5-2.2 9.4-.4z"/></svg>